<svg xmlns="http://www.w3.org/2000/svg" width="708.2611083984375" height="696.4834594726562" viewBox="-324.6346740722656 -385.1249084472656 708.2611083984375 696.4834594726562"><title>Neo4j Graph Visualization</title><desc>Created using Neo4j (http://www.neo4j.com/)</desc><g class="layer relationships"><g class="relationship" transform="translate(-140.678765883068 1.6168976866619094) rotate(538.017901962775)"><path class="b-outline" fill="#A5ABB6" stroke="none" d="M 25 0.5 L 45.920374801970866 0.5 L 45.920374801970866 -0.5 L 25 -0.5 Z M 102.12830632052555 0.5 L 123.04868112249642 0.5 L 123.04868112249642 3.5 L 130.04868112249642 0 L 123.04868112249642 -3.5 L 123.04868112249642 -0.5 L 102.12830632052555 -0.5 Z"/><text text-anchor="middle" pointer-events="none" font-size="8px" fill="#000000" x="74.02434056124821" y="3" transform="rotate(180 74.02434056124821 0)" font-family="Helvetica Neue, Helvetica, Arial, sans-serif">WRITTEN_BY</text></g><g class="relationship" transform="translate(-140.678765883068 1.6168976866619094) rotate(495.7183138882641)"><path class="b-outline" fill="#A5ABB6" stroke="none" d="M 25 0.5 L 52.24065293151193 0.5 L 52.24065293151193 -0.5 L 25 -0.5 Z M 96.2005833514338 0.5 L 123.44123628294574 0.5 L 123.44123628294574 3.5 L 130.44123628294574 0 L 123.44123628294574 -3.5 L 123.44123628294574 -0.5 L 96.2005833514338 -0.5 Z"/><text text-anchor="middle" pointer-events="none" font-size="8px" fill="#000000" x="74.22061814147287" y="3" transform="rotate(180 74.22061814147287 0)" font-family="Helvetica Neue, Helvetica, Arial, sans-serif">OF_BOOK</text></g><g class="relationship" transform="translate(-140.678765883068 1.6168976866619094) rotate(252.80202682953825)"><path class="b-outline" fill="#A5ABB6" stroke="none" d="M 25 0.5 L 41.13788426140614 0.5 L 41.13788426140614 -0.5 L 25 -0.5 Z M 113.92981541374989 0.5 L 130.06769967515604 0.5 L 130.06769967515604 3.5 L 137.06769967515604 0 L 130.06769967515604 -3.5 L 130.06769967515604 -0.5 L 113.92981541374989 -0.5 Z"/><text text-anchor="middle" pointer-events="none" font-size="8px" fill="#000000" x="77.53384983757802" y="3" transform="rotate(180 77.53384983757802 0)" font-family="Helvetica Neue, Helvetica, Arial, sans-serif">TRANSLATED_BY</text></g><g class="relationship" transform="translate(-140.678765883068 1.6168976866619094) rotate(368.7025044083237)"><path class="b-outline" fill="#A5ABB6" stroke="none" d="M 25 0.5 L 25.861657079700848 0.5 L 25.861657079700848 -0.5 L 25 -0.5 Z M 91.94161313438835 0.5 L 92.8032702140892 0.5 L 92.8032702140892 3.5 L 99.8032702140892 0 L 92.8032702140892 -3.5 L 92.8032702140892 -0.5 L 91.94161313438835 -0.5 Z"/><text text-anchor="middle" pointer-events="none" font-size="8px" fill="#000000" x="58.9016351070446" y="3" font-family="Helvetica Neue, Helvetica, Arial, sans-serif">TRANSLATED…</text></g><g class="relationship" transform="translate(-67.79207171266489 -64.9617853647178) rotate(216.14628490740768)"><path class="b-outline" fill="#A5ABB6" stroke="none" d="M 25 0.5 L 34.90520983526066 0.5 L 34.90520983526066 -0.5 L 25 -0.5 Z M 107.69714098760441 0.5 L 117.60235082286508 0.5 L 117.60235082286508 3.5 L 124.60235082286508 0 L 117.60235082286508 -3.5 L 117.60235082286508 -0.5 L 107.69714098760441 -0.5 Z"/><text text-anchor="middle" pointer-events="none" font-size="8px" fill="#000000" x="71.30117541143254" y="3" transform="rotate(180 71.30117541143254 0)" font-family="Helvetica Neue, Helvetica, Arial, sans-serif">TRANSLATED_BY</text></g><g class="relationship" transform="translate(-1.996707206135985 -139.48374124122876) rotate(455.4683884382271)"><path class="b-outline" fill="#A5ABB6" stroke="none" d="M 25 0.5 L 40.461686095367995 0.5 L 40.461686095367995 -0.5 L 25 -0.5 Z M 113.25361724771174 0.5 L 128.71530334307974 0.5 L 128.71530334307974 3.5 L 135.71530334307974 0 L 128.71530334307974 -3.5 L 128.71530334307974 -0.5 L 113.25361724771174 -0.5 Z"/><text text-anchor="middle" pointer-events="none" font-size="8px" fill="#000000" x="76.85765167153987" y="3" transform="rotate(180 76.85765167153987 0)" font-family="Helvetica Neue, Helvetica, Arial, sans-serif">TRANSLATED_BY</text></g><g class="relationship" transform="translate(-1.996707206135985 -139.48374124122876) rotate(184.20539938653434)"><path class="b-outline" fill="#A5ABB6" stroke="none" d="M 25 0.5 L 53.656570665010605 0.5 L 53.656570665010605 -0.5 L 25 -0.5 Z M 126.44850181735436 0.5 L 155.10507248236496 0.5 L 155.10507248236496 3.5 L 162.10507248236496 0 L 155.10507248236496 -3.5 L 155.10507248236496 -0.5 L 126.44850181735436 -0.5 Z"/><text text-anchor="middle" pointer-events="none" font-size="8px" fill="#000000" x="90.05253624118248" y="3" transform="rotate(180 90.05253624118248 0)" font-family="Helvetica Neue, Helvetica, Arial, sans-serif">TRANSLATED_BY</text></g><g class="relationship" transform="translate(-2.0790140528590033 -291.9458777929172) rotate(449.96906881543975)"><path class="b-outline" fill="#A5ABB6" stroke="none" d="M 25 0.5 L 52.99111203801171 0.5 L 52.99111203801171 -0.5 L 25 -0.5 Z M 92.47104673039452 0.5 L 120.46215876840623 0.5 L 120.46215876840623 3.5 L 127.46215876840623 0 L 120.46215876840623 -3.5 L 120.46215876840623 -0.5 L 92.47104673039452 -0.5 Z"/><text text-anchor="middle" pointer-events="none" font-size="8px" fill="#000000" x="72.73107938420311" y="3" font-family="Helvetica Neue, Helvetica, Arial, sans-serif">has_read</text></g><g class="relationship" transform="translate(-1.996707206135985 -139.48374124122876) rotate(230.55081373750016)"><path class="b-outline" fill="#A5ABB6" stroke="none" d="M 25 0.5 L 45.566816345129794 0.5 L 45.566816345129794 -0.5 L 25 -0.5 Z M 101.77474786368448 0.5 L 122.34156420881428 0.5 L 122.34156420881428 3.5 L 129.34156420881428 0 L 122.34156420881428 -3.5 L 122.34156420881428 -0.5 L 101.77474786368448 -0.5 Z"/><text text-anchor="middle" pointer-events="none" font-size="8px" fill="#000000" x="73.67078210440714" y="3" transform="rotate(180 73.67078210440714 0)" font-family="Helvetica Neue, Helvetica, Arial, sans-serif">WRITTEN_BY</text></g><g class="relationship" transform="translate(-1.996707206135985 -139.48374124122876) rotate(380.7942220819416)"><path class="b-outline" fill="#A5ABB6" stroke="none" d="M 25 0.5 L 66.85355132845031 0.5 L 66.85355132845031 -0.5 L 25 -0.5 Z M 110.81348174837218 0.5 L 152.6670330768225 0.5 L 152.6670330768225 3.5 L 159.6670330768225 0 L 152.6670330768225 -3.5 L 152.6670330768225 -0.5 L 110.81348174837218 -0.5 Z"/><text text-anchor="middle" pointer-events="none" font-size="8px" fill="#000000" x="88.83351653841125" y="3" font-family="Helvetica Neue, Helvetica, Arial, sans-serif">OF_BOOK</text></g><g class="relationship" transform="translate(187.79322130005656 107.86090464374927) rotate(264.6099833734535)"><path class="b-outline" fill="#A5ABB6" stroke="none" d="M 25 0.5 L 65.81646884617857 0.5 L 65.81646884617857 -0.5 L 25 -0.5 Z M 109.77639926610044 0.5 L 150.592868112279 0.5 L 150.592868112279 3.5 L 157.592868112279 0 L 150.592868112279 -3.5 L 150.592868112279 -0.5 L 109.77639926610044 -0.5 Z"/><text text-anchor="middle" pointer-events="none" font-size="8px" fill="#000000" x="87.7964340561395" y="3" transform="rotate(180 87.7964340561395 0)" font-family="Helvetica Neue, Helvetica, Arial, sans-serif">OF_BOOK</text></g><g class="relationship" transform="translate(305.11236092083954 223.92869215973056) rotate(224.69279981473835)"><path class="b-outline" fill="#A5ABB6" stroke="none" d="M 25 0.5 L 59.27595811704228 0.5 L 59.27595811704228 -0.5 L 25 -0.5 Z M 98.75589280942509 0.5 L 133.03185092646737 0.5 L 133.03185092646737 3.5 L 140.03185092646737 0 L 133.03185092646737 -3.5 L 133.03185092646737 -0.5 L 98.75589280942509 -0.5 Z"/><text text-anchor="middle" pointer-events="none" font-size="8px" fill="#000000" x="79.01592546323369" y="3" transform="rotate(180 79.01592546323369 0)" font-family="Helvetica Neue, Helvetica, Arial, sans-serif">has_read</text></g><g class="relationship" transform="translate(188.53041664337383 282.3585793498544) rotate(269.7579455964917)"><path class="b-outline" fill="#A5ABB6" stroke="none" d="M 25 0.5 L 64.00964860541592 0.5 L 64.00964860541592 -0.5 L 25 -0.5 Z M 103.48958329779873 0.5 L 142.49923190321465 0.5 L 142.49923190321465 3.5 L 149.49923190321465 0 L 142.49923190321465 -3.5 L 142.49923190321465 -0.5 L 103.48958329779873 -0.5 Z"/><text text-anchor="middle" pointer-events="none" font-size="8px" fill="#000000" x="83.74961595160732" y="3" transform="rotate(180 83.74961595160732 0)" font-family="Helvetica Neue, Helvetica, Arial, sans-serif">has_read</text></g><g class="relationship" transform="translate(187.79322130005656 107.86090464374927) rotate(232.06161110468008)"><path class="b-outline" fill="#A5ABB6" stroke="none" d="M 25 0.5 L 52.70326857895883 0.5 L 52.70326857895883 -0.5 L 25 -0.5 Z M 108.91120009751351 0.5 L 136.61446867647234 0.5 L 136.61446867647234 3.5 L 143.61446867647234 0 L 136.61446867647234 -3.5 L 136.61446867647234 -0.5 L 108.91120009751351 -0.5 Z"/><text text-anchor="middle" pointer-events="none" font-size="8px" fill="#000000" x="80.80723433823617" y="3" transform="rotate(180 80.80723433823617 0)" font-family="Helvetica Neue, Helvetica, Arial, sans-serif">WRITTEN_BY</text></g><g class="relationship" transform="translate(187.79322130005656 107.86090464374927) rotate(357.5407667175598)"><path class="b-outline" fill="#A5ABB6" stroke="none" d="M 25 0.5 L 58.01355849898633 0.5 L 58.01355849898633 -0.5 L 25 -0.5 Z M 101.9734889189082 0.5 L 134.98704741789453 0.5 L 134.98704741789453 3.5 L 141.98704741789453 0 L 134.98704741789453 -3.5 L 134.98704741789453 -0.5 L 101.9734889189082 -0.5 Z"/><text text-anchor="middle" pointer-events="none" font-size="8px" fill="#000000" x="79.99352370894727" y="3" font-family="Helvetica Neue, Helvetica, Arial, sans-serif">OF_BOOK</text></g><g class="relationship" transform="translate(187.79322130005656 107.86090464374927) rotate(321.1992323892523)"><path class="b-outline" fill="#A5ABB6" stroke="none" d="M 25 0.5 L 35.191468530502405 0.5 L 35.191468530502405 -0.5 L 25 -0.5 Z M 100.32737856468209 0.5 L 110.5188470951845 0.5 L 110.5188470951845 3.5 L 117.5188470951845 0 L 110.5188470951845 -3.5 L 110.5188470951845 -0.5 L 100.32737856468209 -0.5 Z"/><text text-anchor="middle" pointer-events="none" font-size="8px" fill="#000000" x="67.75942354759225" y="3" font-family="Helvetica Neue, Helvetica, Arial, sans-serif">PUBLISHED_BY</text></g><g class="relationship" transform="translate(187.79322130005656 107.86090464374927) rotate(196.4849161199969)"><path class="b-outline" fill="#A5ABB6" stroke="none" d="M 25 0.5 L 25.793519385938907 0.5 L 25.793519385938907 -0.5 L 25 -0.5 Z M 91.87347544062641 0.5 L 92.66699482656531 0.5 L 92.66699482656531 3.5 L 99.66699482656531 0 L 92.66699482656531 -3.5 L 92.66699482656531 -0.5 L 91.87347544062641 -0.5 Z"/><text text-anchor="middle" pointer-events="none" font-size="8px" fill="#000000" x="58.83349741328266" y="3" transform="rotate(180 58.83349741328266 0)" font-family="Helvetica Neue, Helvetica, Arial, sans-serif">TRANSLATED…</text></g><g class="relationship" transform="translate(187.79322130005656 107.86090464374927) rotate(534.018979402243)"><path class="b-outline" fill="#A5ABB6" stroke="none" d="M 25 0.5 L 60.772194258676834 0.5 L 60.772194258676834 -0.5 L 25 -0.5 Z M 133.5641254110206 0.5 L 169.33631966969742 0.5 L 169.33631966969742 3.5 L 176.33631966969742 0 L 169.33631966969742 -3.5 L 169.33631966969742 -0.5 L 133.5641254110206 -0.5 Z"/><text text-anchor="middle" pointer-events="none" font-size="8px" fill="#000000" x="97.16815983484871" y="3" transform="rotate(180 97.16815983484871 0)" font-family="Helvetica Neue, Helvetica, Arial, sans-serif">TRANSLATED_BY</text></g><g class="relationship" transform="translate(187.79322130005656 107.86090464374927) rotate(484.3230531294693)"><path class="b-outline" fill="#A5ABB6" stroke="none" d="M 25 0.5 L 45.37866363848269 0.5 L 45.37866363848269 -0.5 L 25 -0.5 Z M 101.58659515703738 0.5 L 121.96525879552007 0.5 L 121.96525879552007 3.5 L 128.96525879552007 0 L 121.96525879552007 -3.5 L 121.96525879552007 -0.5 L 101.58659515703738 -0.5 Z"/><text text-anchor="middle" pointer-events="none" font-size="8px" fill="#000000" x="73.48262939776004" y="3" transform="rotate(180 73.48262939776004 0)" font-family="Helvetica Neue, Helvetica, Arial, sans-serif">WRITTEN_BY</text></g><g class="relationship" transform="translate(-67.79207171266489 -64.9617853647178) rotate(434.061976169021)"><path class="b-outline" fill="#A5ABB6" stroke="none" d="M 25 0.5 L 60.87875503216193 0.5 L 60.87875503216193 -0.5 L 25 -0.5 Z M 133.67068618450568 0.5 L 169.54944121666762 0.5 L 169.54944121666762 3.5 L 176.54944121666762 0 L 169.54944121666762 -3.5 L 169.54944121666762 -0.5 L 133.67068618450568 -0.5 Z"/><text text-anchor="middle" pointer-events="none" font-size="8px" fill="#000000" x="97.27472060833381" y="3" font-family="Helvetica Neue, Helvetica, Arial, sans-serif">TRANSLATED_BY</text></g><g class="relationship" transform="translate(-67.79207171266489 -64.9617853647178) rotate(374.6950505780612)"><path class="b-outline" fill="#A5ABB6" stroke="none" d="M 25 0.5 L 46.92411251378107 0.5 L 46.92411251378107 -0.5 L 25 -0.5 Z M 103.13204403233576 0.5 L 125.05615654611682 0.5 L 125.05615654611682 3.5 L 132.05615654611682 0 L 125.05615654611682 -3.5 L 125.05615654611682 -0.5 L 103.13204403233576 -0.5 Z"/><text text-anchor="middle" pointer-events="none" font-size="8px" fill="#000000" x="75.02807827305841" y="3" font-family="Helvetica Neue, Helvetica, Arial, sans-serif">WRITTEN_BY</text></g><g class="relationship" transform="translate(188.53041664337383 282.3585793498544) rotate(333.38035750850395)"><path class="b-outline" fill="#A5ABB6" stroke="none" d="M 25 0.5 L 47.11040768325566 0.5 L 47.11040768325566 -0.5 L 25 -0.5 Z M 76.2943523854041 0.5 L 98.40476006865975 0.5 L 98.40476006865975 3.5 L 105.40476006865975 0 L 98.40476006865975 -3.5 L 98.40476006865975 -0.5 L 76.2943523854041 -0.5 Z"/><text text-anchor="middle" pointer-events="none" font-size="8px" fill="#000000" x="61.70238003432988" y="3" font-family="Helvetica Neue, Helvetica, Arial, sans-serif">Friend</text></g><g class="relationship" transform="translate(170.6413890016152 -73.92460119836748) rotate(360.87153375294463)"><path class="b-outline" fill="#A5ABB6" stroke="none" d="M 25 0.5 L 55.939562076519366 0.5 L 55.939562076519366 -0.5 L 25 -0.5 Z M 108.06750702280843 0.5 L 139.0070690993278 0.5 L 139.0070690993278 3.5 L 146.0070690993278 0 L 139.0070690993278 -3.5 L 139.0070690993278 -0.5 L 108.06750702280843 -0.5 Z"/><text text-anchor="middle" pointer-events="none" font-size="8px" fill="#000000" x="82.0035345496639" y="3" font-family="Helvetica Neue, Helvetica, Arial, sans-serif">OF_EDITION</text></g><g class="relationship" transform="translate(170.6413890016152 -73.92460119836748) rotate(299.050722281476)"><path class="b-outline" fill="#A5ABB6" stroke="none" d="M 24.018736134675446,-6.953439040707552 L 24.277555179777966,-5.987513214418485 A 196.02175406922638 196.02175406922638 0 0 1 46.8836014144467,-10.638175188885185 L 46.74010654008232,-11.627826249123672 A 197.02175406922638 197.02175406922638 0 0 0 24.018736134675446,-6.953439040707552 Z M 98.84423860495666,-12.220043382700624 L 98.72327470261881,-11.227386476044956 A 196.02175406922638 196.02175406922638 0 0 1 121.42918636568841,-7.091741579101948 L 120.71879376362038,-4.17706452136004 L 128.34849826743087,-5.919938350566872 L 122.37637650177912,-10.977977656091156 L 121.6659838997111,-8.06330059834925 A 197.02175406922638 197.02175406922638 0 0 0 98.84423860495666,-12.220043382700624"/><text text-anchor="middle" pointer-events="none" font-size="8px" fill="#000000" x="72.77819048083583" y="-10.154099750904322" font-family="Helvetica Neue, Helvetica, Arial, sans-serif">OF_EDITION</text></g><g class="relationship" transform="translate(170.6413890016152 -73.92460119836748) rotate(299.050722281476)"><path class="b-outline" fill="#A5ABB6" stroke="none" d="M 24.018736134675446,6.953439040707552 L 24.277555179777966,5.987513214418485 A 196.02175406922638 196.02175406922638 0 0 0 46.88360141444677,10.638175188885185 L 46.740106540082394,11.627826249123672 A 197.02175406922638 197.02175406922638 0 0 1 24.018736134675446,6.953439040707552 Z M 98.84423860495664,12.220043382700624 L 98.72327470261881,11.227386476044956 A 196.02175406922638 196.02175406922638 0 0 0 121.42918636568841,7.091741579101948 L 120.71879376362038,4.17706452136004 L 128.34849826743087,5.919938350566872 L 122.37637650177912,10.977977656091156 L 121.6659838997111,8.06330059834925 A 197.02175406922638 197.02175406922638 0 0 1 98.84423860495664,12.220043382700624"/><text text-anchor="middle" pointer-events="none" font-size="8px" fill="#000000" x="72.77819048083587" y="16.154099750904322" font-family="Helvetica Neue, Helvetica, Arial, sans-serif">OF_EDITION</text></g><g class="relationship" transform="translate(354.6264743945666 100.69573421665523) rotate(265.6789328985726)"><path class="b-outline" fill="#A5ABB6" stroke="none" d="M 25 0.5 L 56.690819197294815 0.5 L 56.690819197294815 -0.5 L 25 -0.5 Z M 108.81876414358388 0.5 L 140.5095833408787 0.5 L 140.5095833408787 3.5 L 147.5095833408787 0 L 140.5095833408787 -3.5 L 140.5095833408787 -0.5 L 108.81876414358388 -0.5 Z"/><text text-anchor="middle" pointer-events="none" font-size="8px" fill="#000000" x="82.75479167043935" y="3" transform="rotate(180 82.75479167043935 0)" font-family="Helvetica Neue, Helvetica, Arial, sans-serif">OF_EDITION</text></g><g class="relationship" transform="translate(244.7596590985381 -207.35878134048184) rotate(271.68406151410665)"><path class="b-outline" fill="#A5ABB6" stroke="none" d="M 24.018736134675446,6.953439040707552 L 24.277555179777966,5.987513214418485 A 188.53792372994252 188.53792372994252 0 0 0 46.42615295596504,10.518982315779198 L 46.284809468766255,11.50894293046369 A 189.53792372994252 189.53792372994252 0 0 1 24.018736134675446,6.953439040707552 Z M 95.48834356634595,12.081875576040858 L 95.37008974906182,11.088892175022636 A 188.53792372994252 188.53792372994252 0 0 0 117.61819804321732,7.074384359681517 L 116.90942651444234,4.159312676172176 L 124.53816055953494,5.9064294064581295 L 118.56322674825063,10.961146604360637 L 117.85445521947565,8.046074920851296 A 189.53792372994252 189.53792372994252 0 0 1 95.48834356634595,12.081875576040858"/><text text-anchor="middle" pointer-events="none" font-size="8px" fill="#000000" x="70.87372647064171" y="15.898973042797508" font-family="Helvetica Neue, Helvetica, Arial, sans-serif">PRICED_AT</text></g><g class="relationship" transform="translate(244.7596590985381 -207.35878134048184) rotate(271.68406151410665)"><path class="b-outline" fill="#A5ABB6" stroke="none" d="M 24.018736134675446,-6.953439040707552 L 24.277555179777966,-5.987513214418485 A 188.53792372994252 188.53792372994252 0 0 1 46.42615295596504,-10.518982315779198 L 46.284809468766255,-11.50894293046369 A 189.53792372994252 189.53792372994252 0 0 0 24.018736134675446,-6.953439040707552 Z M 95.48834356634595,-12.081875576040858 L 95.37008974906182,-11.088892175022636 A 188.53792372994252 188.53792372994252 0 0 1 117.61819804321732,-7.074384359681517 L 116.90942651444234,-4.159312676172176 L 124.53816055953494,-5.9064294064581295 L 118.56322674825063,-10.961146604360637 L 117.85445521947565,-8.046074920851296 A 189.53792372994252 189.53792372994252 0 0 0 95.48834356634595,-12.081875576040858"/><text text-anchor="middle" pointer-events="none" font-size="8px" fill="#000000" x="70.87372647064171" y="-9.898973042797508" font-family="Helvetica Neue, Helvetica, Arial, sans-serif">PRICED_AT</text></g></g><g class="layer nodes"><g class="node" aria-label="graph-node529" transform="translate(-67.79207171266489,-64.9617853647178)"><circle class="b-outline" cx="0" cy="0" r="25" fill="#F16667" stroke="#eb2728" stroke-width="2px"/><text class="caption" text-anchor="middle" pointer-events="none" x="0" y="5" font-size="10px" fill="#FFFFFF" font-family="Helvetica Neue, Helvetica, Arial, sans-serif"> 西方哲…</text></g><g class="node" aria-label="graph-node546" transform="translate(187.79322130005656,107.86090464374927)"><circle class="b-outline" cx="0" cy="0" r="25" fill="#F16667" stroke="#eb2728" stroke-width="2px"/><text class="caption" text-anchor="middle" pointer-events="none" x="0" y="5" font-size="10px" fill="#FFFFFF" font-family="Helvetica Neue, Helvetica, Arial, sans-serif"> 中国文…</text></g><g class="node" aria-label="graph-node552" transform="translate(-1.996707206135985,-139.48374124122876)"><circle class="b-outline" cx="0" cy="0" r="25" fill="#F16667" stroke="#eb2728" stroke-width="2px"/><text class="caption" text-anchor="middle" pointer-events="none" x="0" y="5" font-size="10px" fill="#FFFFFF" font-family="Helvetica Neue, Helvetica, Arial, sans-serif"> 科学探索</text></g><g class="node" aria-label="graph-node560" transform="translate(-140.678765883068,1.6168976866619094)"><circle class="b-outline" cx="0" cy="0" r="25" fill="#F16667" stroke="#eb2728" stroke-width="2px"/><text class="caption" text-anchor="middle" pointer-events="none" x="0" y="5" font-size="10px" fill="#FFFFFF" font-family="Helvetica Neue, Helvetica, Arial, sans-serif"> 中国文…</text></g><g class="node" aria-label="graph-node528" transform="translate(-295.63467866961463,6.979603189831697)"><circle class="b-outline" cx="0" cy="0" r="25" fill="#D9C8AE" stroke="#c0a378" stroke-width="2px"/><text class="caption" text-anchor="middle" pointer-events="none" x="0" y="5" font-size="10px" fill="#2A2C34" font-family="Helvetica Neue, Helvetica, Arial, sans-serif"> 赵晴</text></g><g class="node" aria-label="graph-node534" transform="translate(-251.96162419868546,110.14386844636189)"><circle class="b-outline" cx="0" cy="0" r="25" fill="#8DCC93" stroke="#5db665" stroke-width="2px"/><text class="caption" text-anchor="middle" pointer-events="none" x="0" y="5" font-size="10px" fill="#2A2C34" font-family="Helvetica Neue, Helvetica, Arial, sans-serif"> 版次</text></g><g class="node" aria-label="graph-node535" transform="translate(-188.59801257330656,-153.20456424493412)"><circle class="b-outline" cx="0" cy="0" r="25" fill="#ECB5C9" stroke="#da7298" stroke-width="2px"/><text class="caption" text-anchor="middle" pointer-events="none" x="0" y="5" font-size="10px" fill="#2A2C34" font-family="Helvetica Neue, Helvetica, Arial, sans-serif"> 静C</text></g><g class="node" aria-label="graph-node536" transform="translate(-17.312321494394975,20.500135095205277)"><circle class="b-outline" cx="0" cy="0" r="25" fill="#ECB5C9" stroke="#da7298" stroke-width="2px"/><text class="caption" text-anchor="middle" pointer-events="none" x="0" y="5" font-size="10px" fill="#2A2C34" font-family="Helvetica Neue, Helvetica, Arial, sans-serif"> 静D</text></g><g class="node" aria-label="graph-node497" transform="translate(-2.0790140528590033,-291.9458777929172)"><circle class="b-outline" cx="0" cy="0" r="25" fill="#4C8EDA" stroke="#2870c2" stroke-width="2px"/><text class="caption" text-anchor="middle" pointer-events="none" x="0" y="5" font-size="10px" fill="#FFFFFF" font-family="Helvetica Neue, Helvetica, Arial, sans-serif"> 花B</text></g><g class="node" aria-label="graph-node527" transform="translate(-100.06435577309345,-258.6645062453655)"><circle class="b-outline" cx="0" cy="0" r="25" fill="#D9C8AE" stroke="#c0a378" stroke-width="2px"/><text class="caption" text-anchor="middle" pointer-events="none" x="0" y="5" font-size="10px" fill="#2A2C34" font-family="Helvetica Neue, Helvetica, Arial, sans-serif"> 王墨</text></g><g class="node" aria-label="graph-node545" transform="translate(170.6413890016152,-73.92460119836748)"><circle class="b-outline" cx="0" cy="0" r="25" fill="#8DCC93" stroke="#5db665" stroke-width="2px"/><text class="caption" text-anchor="middle" pointer-events="none" x="0" y="5" font-size="10px" fill="#2A2C34" font-family="Helvetica Neue, Helvetica, Arial, sans-serif"> 版次</text></g><g class="node" aria-label="graph-node496" transform="translate(305.11236092083954,223.92869215973056)"><circle class="b-outline" cx="0" cy="0" r="25" fill="#4C8EDA" stroke="#2870c2" stroke-width="2px"/><text class="caption" text-anchor="middle" pointer-events="none" x="0" y="5" font-size="10px" fill="#FFFFFF" font-family="Helvetica Neue, Helvetica, Arial, sans-serif"> 花A</text></g><g class="node" aria-label="graph-node520" transform="translate(188.53041664337383,282.3585793498544)"><circle class="b-outline" cx="0" cy="0" r="25" fill="#4C8EDA" stroke="#2870c2" stroke-width="2px"/><text class="caption" text-anchor="middle" pointer-events="none" x="0" y="5" font-size="10px" fill="#FFFFFF" font-family="Helvetica Neue, Helvetica, Arial, sans-serif"> 豆豆</text></g><g class="node" aria-label="graph-node530" transform="translate(84.12672608021427,-25.120661055724593)"><circle class="b-outline" cx="0" cy="0" r="25" fill="#D9C8AE" stroke="#c0a378" stroke-width="2px"/><text class="caption" text-anchor="middle" pointer-events="none" x="0" y="5" font-size="10px" fill="#2A2C34" font-family="Helvetica Neue, Helvetica, Arial, sans-serif"> 李寻欢</text></g><g class="node" aria-label="graph-node533" transform="translate(354.6264743945666,100.69573421665523)"><circle class="b-outline" cx="0" cy="0" r="25" fill="#8DCC93" stroke="#5db665" stroke-width="2px"/><text class="caption" text-anchor="middle" pointer-events="none" x="0" y="5" font-size="10px" fill="#2A2C34" font-family="Helvetica Neue, Helvetica, Arial, sans-serif"> 版次</text></g><g class="node" aria-label="graph-node544" transform="translate(298.8623731294016,18.556563823996974)"><circle class="b-outline" cx="0" cy="0" r="25" fill="#FFC454" stroke="#d7a013" stroke-width="2px"/><text class="caption" text-anchor="middle" pointer-events="none" x="0" y="5" font-size="10px" fill="#2A2C34" font-family="Helvetica Neue, Helvetica, Arial, sans-serif"> 人民文…</text></g><g class="node" aria-label="graph-node556" transform="translate(68.25072906049844,72.485035067977)"><circle class="b-outline" cx="0" cy="0" r="25" fill="#ECB5C9" stroke="#da7298" stroke-width="2px"/><text class="caption" text-anchor="middle" pointer-events="none" x="0" y="5" font-size="10px" fill="#2A2C34" font-family="Helvetica Neue, Helvetica, Arial, sans-serif"> 静A</text></g><g class="node" aria-label="graph-node557" transform="translate(-12.44711730374655,128.83995166626372)"><circle class="b-outline" cx="0" cy="0" r="25" fill="#ECB5C9" stroke="#da7298" stroke-width="2px"/><text class="caption" text-anchor="middle" pointer-events="none" x="0" y="5" font-size="10px" fill="#2A2C34" font-family="Helvetica Neue, Helvetica, Arial, sans-serif"> 静B</text></g><g class="node" aria-label="graph-node561" transform="translate(100.9786189060007,235.0164225229725)"><circle class="b-outline" cx="0" cy="0" r="25" fill="#D9C8AE" stroke="#c0a378" stroke-width="2px"/><text class="caption" text-anchor="middle" pointer-events="none" x="0" y="5" font-size="10px" fill="#2A2C34" font-family="Helvetica Neue, Helvetica, Arial, sans-serif"> 张三丰</text></g><g class="node" aria-label="graph-node531" transform="translate(341.6286747957087,-71.32349014513375)"><circle class="b-outline" cx="0" cy="0" r="25" fill="#DA7194" stroke="#cc3c6c" stroke-width="2px"/><text class="caption" text-anchor="middle" pointer-events="none" x="0" y="5" font-size="10px" fill="#FFFFFF" font-family="Helvetica Neue, Helvetica, Arial, sans-serif"> 印次</text></g><g class="node" aria-label="graph-node564" transform="translate(244.7596590985381,-207.35878134048184)"><circle class="b-outline" cx="0" cy="0" r="25" fill="#DA7194" stroke="#cc3c6c" stroke-width="2px"/><text class="caption" text-anchor="middle" pointer-events="none" x="0" y="5" font-size="10px" fill="#FFFFFF" font-family="Helvetica Neue, Helvetica, Arial, sans-serif"> 印次</text></g><g class="node" aria-label="graph-node559" transform="translate(249.13351534672537,-356.1249221951688)"><circle class="b-outline" cx="0" cy="0" r="25" fill="#569480" stroke="#447666" stroke-width="2px"/><text class="caption" text-anchor="middle" pointer-events="none" x="0" y="5" font-size="10px" fill="#FFFFFF" font-family="Helvetica Neue, Helvetica, Arial, sans-serif"> 价59.99</text></g></g></svg>