<?xml version="1.0" standalone="no"?><!DOCTYPE svg PUBLIC "-//W3C//DTD SVG 1.1//EN" "http://www.w3.org/Graphics/SVG/1.1/DTD/svg11.dtd"><svg t="1713607472361" class="icon" viewBox="0 0 1024 1024" version="1.1" xmlns="http://www.w3.org/2000/svg" p-id="10813" xmlns:xlink="http://www.w3.org/1999/xlink" width="200" height="200"><path d="M636.924177 18.462769A115.298872 115.298872 0 0 1 522.649274 102.4282h-20.479373A114.684491 114.684491 0 0 1 387.894998 18.462769a23.756073 23.756073 0 0 0-24.370455-18.431436h-61.43812a32.766997 32.766997 0 0 0-33.586172 31.333442 27.032773 27.032773 0 0 0 1.843144 9.830099l9.010924 26.623185 20.479373 67.99152L327.68564 255.204325a86.627749 86.627749 0 0 0 85.808574 63.07647h196.806778a86.218162 86.218162 0 0 0 86.013368-63.07647l28.671123-119.394746 20.479373-67.99152 9.010924-26.827979A31.128647 31.128647 0 0 0 732.562851 1.669683a38.706016 38.706016 0 0 0-11.263656-1.63835h-61.43812a23.346486 23.346486 0 0 0-22.936898 18.431436zM838.031623 1024H185.968377c-93.590736 0-153.5953-90.51883-109.974235-166.087718l253.534642-441.330495a84.784606 84.784606 0 0 1 72.087394-38.501222h220.767644a84.784606 84.784606 0 0 1 72.087394 38.501222l253.534642 441.330495c43.621065 75.568888-16.383499 166.087718-109.974235 166.087718z" fill="#FFC136" p-id="10814"></path></svg>